<?xml version="1.0" encoding="UTF-8"?><svg id="Layer_2" xmlns="http://www.w3.org/2000/svg" xmlns:xlink="http://www.w3.org/1999/xlink" viewBox="0 0 124.1 154.24"><defs><style>.cls-1{fill:url(#New_Gradient_Swatch_copy);}.cls-2{fill:#fff;}.cls-3{fill:#ddb94b;}.cls-4{fill:url(#New_Gradient_Swatch_copy_3);}.cls-5{fill:url(#New_Gradient_Swatch_copy-3);}.cls-6{fill:url(#New_Gradient_Swatch_copy-4);}.cls-7{fill:url(#New_Gradient_Swatch_copy-2);}.cls-8{fill:#f2f2f2;stroke:#363636;stroke-linecap:round;stroke-linejoin:round;stroke-width:2px;}.cls-9{fill:url(#New_Gradient_Swatch_copy_3-2);}</style><linearGradient id="New_Gradient_Swatch_copy_3" x1="31.77" y1="112.3" x2="92.33" y2="7.41" gradientTransform="matrix(1, 0, 0, 1, 0, 0)" gradientUnits="userSpaceOnUse"><stop offset="0" stop-color="#272725"/><stop offset=".54" stop-color="#414141"/><stop offset="1" stop-color="#2a2a2a"/></linearGradient><linearGradient id="New_Gradient_Swatch_copy" x1="33.34" y1="109.58" x2="90.76" y2="10.13" gradientTransform="matrix(1, 0, 0, 1, 0, 0)" gradientUnits="userSpaceOnUse"><stop offset="0" stop-color="#dcae4a"/><stop offset=".54" stop-color="#e6cd6d"/><stop offset=".76" stop-color="#d0ae4b"/><stop offset="1" stop-color="#bb912c"/></linearGradient><linearGradient id="New_Gradient_Swatch_copy_3-2" x1="36.61" y1="103.92" x2="87.49" y2="15.8" xlink:href="#New_Gradient_Swatch_copy_3"/><linearGradient id="New_Gradient_Swatch_copy-2" x1="46.59" y1="39.66" x2="49.65" y2="34.36" xlink:href="#New_Gradient_Swatch_copy"/><linearGradient id="New_Gradient_Swatch_copy-3" x1="59.49" y1="39.62" x2="64.11" y2="31.62" xlink:href="#New_Gradient_Swatch_copy"/><linearGradient id="New_Gradient_Swatch_copy-4" x1="74.12" y1="39.66" x2="77.18" y2="34.36" xlink:href="#New_Gradient_Swatch_copy"/></defs><g id="OBJECTS"><g><path class="cls-4" d="M44.48,119.38c-6.06-1.79-8.67-10.64-13.62-14.04-5.12-3.52-14.29-2.84-18-7.67-3.74-4.88-.7-13.58-2.76-19.37C8.06,72.57,.18,67.75,0,61.54c-.17-6,7.37-11.23,9.16-17.29,1.79-6.06-1.69-14.55,1.7-19.5,3.52-5.12,12.75-4.89,17.58-8.59,4.88-3.74,7.05-12.7,12.84-14.77,5.73-2.04,13.07,3.5,19.28,3.33,6-.17,13-6.18,19.06-4.39s8.67,10.64,13.62,14.04c5.12,3.52,14.29,2.84,18,7.67,3.74,4.88,.7,13.58,2.76,19.37,2.04,5.73,9.93,10.55,10.1,16.76,.17,6-7.37,11.24-9.16,17.3-1.79,6.06,1.69,14.55-1.7,19.5-3.52,5.12-12.75,4.88-17.58,8.59-4.88,3.74-7.05,12.7-12.84,14.77-5.73,2.04-13.07-3.51-19.28-3.33-6,.17-13,6.18-19.06,4.39Z"/><polygon class="cls-8" points="75.83 153.24 62.3 146.26 48.76 153.24 48.76 106.93 75.83 106.93 75.83 153.24"/><g><path class="cls-3" d="M71.46,129.92c0-1.64,0-3.28,0-4.92,0-.15-.04-.23-.17-.31-2.86-1.65-5.72-3.3-8.57-4.95-.08-.05-.17-.05-.25,0-2.87,1.66-5.74,3.31-8.6,4.97-.11,.07-.17,.14-.17,.28,0,3.3,0,6.6,0,9.9,0,.15,.05,.22,.17,.28,2.87,1.65,5.73,3.31,8.59,4.97,.07,.05,.16,.05,.23,0,2.87-1.66,5.75-3.32,8.62-4.98,.1-.05,.16-.15,.15-.26,0-1.65,0-3.31,0-4.96Zm-1.01,4.72c-2.57,1.49-5.15,2.97-7.72,4.46-.09,.06-.2,.06-.3,0-2.57-1.49-5.14-2.98-7.72-4.46-.1-.05-.16-.15-.15-.26,0-2.97,0-5.95,0-8.92-.01-.1,.04-.2,.13-.25,2.58-1.49,5.16-2.98,7.73-4.47,.09-.06,.19-.06,.28,0,2.57,1.49,5.14,2.98,7.72,4.46,.12,.07,.15,.14,.15,.27,0,1.49,0,2.98,0,4.46v4.45c.01,.11-.05,.21-.15,.26Z"/><path class="cls-3" d="M61.06,129.03h-.02s.01,0,.02,0Z"/><path class="cls-3" d="M67.06,124.79c-.12-.06-.29-.09-.53-.09h-4.69c-.21,0-.42,0-.62,0-.12,0-.25,0-.37,.02-.08,0-.17,.01-.25,.02-.25,.02-.49,.06-.74,.12-.05,.01-.1,.03-.15,.04h-.04s-.09,.04-.14,.06h-.03s-.06,.04-.1,.05c-.02,0-.04,.02-.07,.03l-.04,.02c-.63,.29-1.07,.77-1.27,1.51-.2,.73-.19,1.5,0,2.23,.21,.8,.69,1.38,1.45,1.73,.44,.2,.9,.32,1.38,.37,.12,.01,.14,.05,.14,.16v2.1c0,.63,0,1.26,0,1.89,0,.43,.2,.64,.64,.65,.32,0,.64,0,.95,0,.37,0,.55-.18,.6-.54,.02-.11,.02-.22,.02-.33,0-1.29,0-2.59,0-3.88,0-.13,.02-.18,.17-.18,.72,.03,1.44,.04,2.16,.05,.32,0,.64,.03,.95-.02,.25-.04,.38-.17,.44-.41,.05-.27,.06-.55,.02-.83-.04-.36-.19-.48-.54-.53-.07,0-.14-.01-.21,0-1,.01-1.99,.03-2.98,.03-.72,0-1.44,.04-2.16-.03-.12-.01-.23-.03-.34-.06h0c-.45-.12-.75-.38-.88-.77h0s-.02-.07-.03-.1v-.03s-.02-.06-.03-.08v-.05s-.02-.05-.02-.08c0-.02,0-.04,0-.07,0-.02,0-.05,0-.07,0-.05,0-.09,0-.14,.02-.54,.27-.84,.8-.95,.22-.04,.44-.06,.66-.05h2.6c.95,0,1.9,0,2.85,0,.29,0,.48-.12,.57-.34,.01-.04,.03-.08,.04-.12,0-.04,.02-.09,.02-.14,.01-.16,.02-.32,.02-.48,0-.23-.02-.4-.08-.53-.04-.08-.1-.14-.18-.18Z"/></g><path class="cls-1" d="M113.45,59.86c0-2.3,.97-4.88,1.9-7.38,1.31-3.51,2.67-7.14,1.59-10.45-1.13-3.46-4.44-5.63-7.64-7.73-2.26-1.48-4.4-2.88-5.67-4.63-1.3-1.78-1.98-4.27-2.71-6.9-1.01-3.67-2.05-7.46-4.96-9.57-2.25-1.64-5.17-1.85-7.47-1.85-1.02,0-2.07,.05-3.08,.09-1,.04-2.02,.09-3,.09-1.9,0-3.32-.18-4.47-.55-2-.65-3.97-2.23-6.04-3.9-3.01-2.42-6.12-4.92-9.84-4.92s-6.83,2.5-9.84,4.92c-2.08,1.67-4.04,3.25-6.04,3.9-1.15,.38-2.57,.55-4.47,.55-.98,0-2.01-.04-3-.09-1.01-.04-2.06-.09-3.08-.09-2.3,0-5.23,.21-7.47,1.85-2.9,2.11-3.95,5.9-4.95,9.57-.73,2.64-1.41,5.12-2.71,6.9-1.27,1.75-3.41,3.15-5.67,4.63-3.2,2.1-6.52,4.27-7.64,7.73-1.08,3.31,.28,6.94,1.59,10.45,.93,2.5,1.9,5.08,1.9,7.38s-.97,4.88-1.9,7.38c-1.31,3.51-2.67,7.14-1.59,10.45,1.13,3.46,4.44,5.63,7.64,7.73,2.26,1.48,4.4,2.88,5.67,4.63,1.3,1.78,1.98,4.27,2.71,6.9,1.01,3.67,2.05,7.46,4.95,9.57,2.25,1.64,5.18,1.85,7.47,1.85,1.02,0,2.07-.05,3.08-.09,1-.04,2.02-.09,3-.09,1.9,0,3.32,.18,4.47,.55,2,.65,3.97,2.23,6.04,3.9,3.01,2.42,6.12,4.92,9.84,4.92s6.83-2.5,9.84-4.92c2.08-1.67,4.04-3.25,6.04-3.9,1.15-.37,2.57-.55,4.47-.55,.98,0,2.01,.04,3,.09,1.02,.04,2.06,.09,3.09,.09,2.3,0,5.22-.21,7.47-1.85,2.9-2.11,3.95-5.9,4.96-9.57,.73-2.63,1.41-5.12,2.71-6.9,1.27-1.75,3.41-3.15,5.67-4.63,3.2-2.1,6.51-4.27,7.64-7.73,1.08-3.31-.28-6.94-1.59-10.45-.93-2.5-1.9-5.08-1.9-7.38Z"/><path class="cls-9" d="M107.59,59.86c0-2.04,.86-4.33,1.68-6.54,1.16-3.11,2.36-6.33,1.41-9.26-1-3.07-3.93-4.99-6.77-6.85-2.01-1.31-3.9-2.56-5.03-4.1-1.15-1.58-1.75-3.78-2.4-6.12-.89-3.25-1.82-6.61-4.39-8.48-1.99-1.45-4.59-1.64-6.62-1.64-.9,0-1.83,.04-2.73,.08-.88,.04-1.79,.08-2.66,.08-1.68,0-2.94-.16-3.96-.49-1.78-.58-3.51-1.98-5.36-3.46-2.67-2.14-5.42-4.36-8.72-4.36s-6.05,2.22-8.72,4.36c-1.84,1.48-3.58,2.88-5.36,3.45-1.02,.33-2.28,.49-3.96,.49-.87,0-1.78-.04-2.66-.08-.9-.04-1.83-.08-2.73-.08-2.04,0-4.63,.19-6.62,1.64-2.57,1.87-3.5,5.23-4.39,8.48-.64,2.34-1.25,4.54-2.4,6.12-1.13,1.55-3.02,2.79-5.03,4.1-2.84,1.86-5.77,3.78-6.77,6.85-.96,2.94,.25,6.15,1.41,9.26,.83,2.21,1.68,4.5,1.68,6.54s-.86,4.33-1.68,6.54c-1.16,3.11-2.36,6.33-1.41,9.26,1,3.07,3.93,4.99,6.77,6.85,2,1.31,3.9,2.55,5.03,4.1,1.15,1.58,1.76,3.78,2.4,6.12,.89,3.25,1.82,6.61,4.39,8.48,1.99,1.45,4.59,1.64,6.62,1.64,.9,0,1.83-.04,2.73-.08,.88-.04,1.79-.08,2.66-.08,1.68,0,2.94,.16,3.96,.49,1.78,.58,3.52,1.98,5.36,3.46,2.67,2.14,5.42,4.36,8.72,4.36s6.05-2.21,8.72-4.36c1.84-1.48,3.58-2.88,5.36-3.46,1.02-.33,2.28-.49,3.96-.49,.87,0,1.78,.04,2.66,.08,.9,.04,1.83,.08,2.73,.08,2.04,0,4.63-.19,6.62-1.64,2.57-1.87,3.5-5.23,4.39-8.48,.64-2.33,1.25-4.54,2.4-6.12,1.13-1.55,3.02-2.79,5.03-4.1,2.84-1.86,5.77-3.78,6.77-6.85,.96-2.94-.25-6.15-1.41-9.26-.83-2.21-1.68-4.5-1.68-6.54Z"/><g><g><path class="cls-2" d="M55.45,80.36c.11,.11,.17,.25,.17,.42s-.06,.3-.17,.41-.25,.16-.42,.16h-3.61c-.18,0-.33-.06-.44-.17-.11-.11-.16-.26-.16-.44s.06-.33,.19-.47l2.32-2.48c.26-.28,.47-.57,.62-.85,.15-.29,.23-.55,.23-.79,0-.32-.11-.6-.34-.83-.23-.23-.49-.35-.79-.35-.21,0-.41,.07-.62,.21s-.4,.32-.57,.55c-.13,.17-.29,.26-.49,.26-.16,0-.3-.06-.43-.18s-.2-.25-.2-.4c0-.11,.04-.21,.11-.32,.07-.11,.18-.24,.32-.38,.27-.27,.58-.48,.93-.65,.35-.16,.69-.24,1.02-.24,.47,0,.88,.1,1.23,.3,.35,.2,.63,.47,.82,.82,.19,.35,.29,.74,.29,1.18s-.12,.88-.34,1.33c-.23,.46-.54,.89-.93,1.31l-1.35,1.43h2.19c.17,0,.31,.06,.42,.17Z"/><path class="cls-2" d="M57.67,80.99c-.43-.32-.75-.77-.97-1.34-.22-.58-.33-1.24-.33-2s.11-1.43,.33-2,.54-1.03,.97-1.34c.43-.32,.94-.48,1.53-.48s1.11,.16,1.54,.48c.43,.32,.75,.77,.97,1.34s.33,1.24,.33,2-.11,1.43-.33,2c-.22,.58-.54,1.03-.97,1.34-.43,.32-.94,.48-1.54,.48s-1.11-.16-1.53-.48Zm2.6-1.44c.26-.43,.39-1.07,.39-1.9s-.13-1.47-.39-1.9c-.26-.43-.61-.65-1.07-.65s-.81,.22-1.07,.65c-.26,.43-.39,1.07-.39,1.9s.13,1.47,.39,1.9c.26,.43,.61,.65,1.07,.65s.81-.22,1.07-.65Z"/><path class="cls-2" d="M67.67,80.36c.11,.11,.17,.25,.17,.42s-.06,.3-.17,.41c-.11,.11-.26,.16-.43,.16h-3.61c-.18,0-.33-.06-.44-.17-.11-.11-.16-.26-.16-.44s.06-.33,.19-.47l2.32-2.48c.26-.28,.47-.57,.62-.85,.15-.29,.23-.55,.23-.79,0-.32-.11-.6-.34-.83-.23-.23-.49-.35-.79-.35-.21,0-.41,.07-.62,.21s-.4,.32-.57,.55c-.13,.17-.29,.26-.49,.26-.16,0-.3-.06-.43-.18s-.2-.25-.2-.4c0-.11,.04-.21,.11-.32,.07-.11,.18-.24,.32-.38,.27-.27,.58-.48,.93-.65,.35-.16,.69-.24,1.02-.24,.47,0,.88,.1,1.23,.3,.35,.2,.63,.47,.82,.82,.19,.35,.29,.74,.29,1.18s-.12,.88-.34,1.33c-.23,.46-.54,.89-.93,1.31l-1.35,1.43h2.19c.17,0,.31,.06,.43,.17Z"/><path class="cls-2" d="M73.36,80.36c.11,.11,.17,.25,.17,.42s-.06,.3-.17,.41-.25,.16-.42,.16h-3.61c-.18,0-.33-.06-.44-.17-.11-.11-.16-.26-.16-.44s.06-.33,.19-.47l2.32-2.48c.26-.28,.47-.57,.62-.85,.15-.29,.23-.55,.23-.79,0-.32-.11-.6-.34-.83-.23-.23-.49-.35-.79-.35-.21,0-.41,.07-.62,.21-.21,.14-.4,.32-.57,.55-.13,.17-.29,.26-.49,.26-.16,0-.3-.06-.43-.18-.13-.12-.2-.25-.2-.4,0-.11,.04-.21,.11-.32,.07-.11,.18-.24,.32-.38,.27-.27,.58-.48,.94-.65,.35-.16,.69-.24,1.02-.24,.47,0,.88,.1,1.23,.3s.63,.47,.82,.82c.19,.35,.29,.74,.29,1.18s-.12,.88-.34,1.33c-.23,.46-.54,.89-.93,1.31l-1.35,1.43h2.19c.17,0,.31,.06,.42,.17Z"/></g><g><g><path class="cls-2" d="M42.55,28.23c-.21,.05-.43,.05-.66,0-.13-.03-.22-.08-.27-.17-.04-.07-.05-.15-.03-.24,.02-.09,.07-.15,.14-.2,.06-.04,.12-.05,.19-.04,.19,.03,.35,.03,.5,0,.15-.02,.3-.08,.46-.18,.18-.1,.3-.23,.38-.38,.08-.15,.09-.29,.02-.4-.08-.14-.21-.21-.38-.22-.17,0-.41,.05-.7,.17-.74,.3-1.27,.19-1.59-.35-.12-.2-.17-.4-.15-.6,.02-.21,.09-.4,.22-.58s.31-.34,.53-.47c.2-.12,.4-.2,.61-.24s.4-.05,.57-.02c.13,.02,.23,.08,.28,.17,.04,.07,.05,.15,.03,.24s-.07,.15-.14,.19c-.05,.03-.1,.04-.15,.03-.12-.02-.27-.01-.45,.02-.18,.03-.32,.08-.44,.15-.2,.12-.33,.24-.39,.38-.06,.14-.06,.26,0,.38,.08,.13,.19,.2,.35,.21,.15,0,.36-.04,.62-.14,.3-.11,.55-.18,.75-.2,.2-.02,.38,0,.54,.08,.16,.08,.29,.22,.42,.43,.12,.2,.16,.4,.14,.62-.02,.21-.1,.42-.24,.6-.14,.19-.31,.35-.52,.47-.22,.13-.44,.22-.65,.27Z"/><path class="cls-2" d="M47.37,25.19c.08,.03,.14,.08,.18,.16,.04,.08,.04,.16,0,.24-.03,.08-.09,.14-.18,.18l-1.65,.76c-.08,.04-.17,.04-.25,.01-.08-.03-.15-.09-.19-.18l-1.32-2.85c-.04-.09-.04-.17-.01-.25s.09-.15,.17-.19l1.65-.76c.09-.04,.17-.05,.25-.02,.08,.03,.14,.08,.18,.17,.04,.08,.04,.16,0,.24-.03,.08-.09,.14-.18,.18l-1.34,.62,.39,.84,1.12-.52c.09-.04,.17-.04,.25-.02,.08,.03,.14,.08,.18,.17,.04,.08,.04,.16,0,.24s-.09,.14-.18,.18l-1.12,.51,.42,.91,1.34-.62c.09-.04,.17-.04,.25-.01Z"/><path class="cls-2" d="M50.81,23.91c.08,.04,.13,.1,.17,.19,.03,.09,.02,.17-.02,.25-.04,.08-.11,.13-.19,.16l-1.67,.58c-.09,.03-.17,.03-.25-.01-.08-.04-.14-.1-.17-.19l-1.03-2.97c-.03-.09-.03-.17,.01-.25s.11-.14,.21-.17c.09-.03,.17-.03,.25,.01,.08,.04,.14,.1,.17,.19l.93,2.68,1.34-.47c.09-.03,.17-.03,.25,0Z"/><path class="cls-2" d="M55.12,22.47c-.09,.33-.26,.6-.5,.83-.24,.23-.53,.38-.87,.46-.34,.07-.67,.06-.98-.05-.31-.11-.58-.3-.79-.56-.22-.26-.36-.56-.44-.91-.08-.35-.07-.69,.02-1.01,.09-.33,.25-.6,.49-.83,.24-.23,.53-.38,.87-.45,.34-.08,.67-.06,.98,.05,.31,.11,.58,.29,.79,.55,.22,.26,.37,.56,.44,.92,.08,.35,.07,.69-.02,1.01Zm-.95-1.48c-.14-.17-.3-.3-.5-.37s-.4-.09-.61-.05c-.22,.05-.4,.14-.54,.29-.14,.15-.24,.33-.29,.54s-.05,.44,0,.68c.05,.24,.14,.44,.28,.62,.14,.18,.3,.3,.49,.38,.19,.07,.4,.09,.61,.04,.21-.05,.39-.14,.54-.29s.25-.33,.3-.55c.05-.21,.05-.44,0-.68-.05-.24-.15-.44-.28-.62Z"/><path class="cls-2" d="M59.29,19.67l.06,.96,1.17-.07c.09,0,.17,.02,.24,.08,.07,.06,.1,.13,.11,.22,0,.08-.02,.15-.08,.22-.06,.07-.14,.1-.23,.11l-1.17,.07,.07,1.26c0,.09-.02,.18-.09,.24-.06,.07-.14,.1-.23,.11-.1,0-.19-.02-.25-.08-.07-.06-.1-.13-.11-.23l-.18-3.14c0-.09,.02-.17,.08-.24,.06-.07,.14-.1,.23-.11l1.76-.1c.09,0,.17,.02,.24,.08,.07,.06,.1,.13,.11,.22,0,.08-.02,.15-.08,.22-.06,.07-.14,.1-.23,.11l-1.42,.08Z"/><path class="cls-2" d="M65.66,21.97c-.18,.29-.41,.52-.7,.68-.29,.16-.61,.23-.96,.21-.35-.02-.66-.12-.93-.31s-.48-.44-.62-.74c-.14-.31-.2-.64-.18-1,.02-.36,.12-.68,.29-.97,.17-.29,.4-.51,.69-.67,.29-.16,.61-.23,.96-.21,.35,.02,.66,.12,.93,.31s.48,.44,.62,.74c.14,.31,.21,.64,.19,1s-.12,.68-.29,.97Zm-.53-1.68c-.09-.2-.21-.37-.38-.49-.17-.12-.36-.19-.58-.2-.22-.01-.42,.04-.6,.14s-.32,.25-.43,.45-.17,.41-.18,.66c-.01,.24,.02,.47,.11,.67s.21,.37,.38,.49c.17,.12,.36,.19,.58,.2,.22,.01,.42-.04,.59-.14,.18-.11,.32-.26,.43-.45,.11-.19,.17-.41,.18-.65s-.02-.47-.11-.67Z"/><path class="cls-2" d="M70.12,23.18c.02,.05,.02,.1,.01,.15-.01,.06-.04,.12-.1,.17-.06,.05-.15,.07-.26,.05-.09-.02-.16-.05-.23-.1-.23-.19-.31-.51-.23-.96,.02-.13,0-.24-.07-.33-.07-.09-.18-.15-.34-.18l-1-.18-.18,1.04c-.02,.1-.06,.17-.12,.22-.06,.05-.14,.07-.22,.06-.1-.02-.19-.07-.25-.14-.07-.08-.09-.16-.07-.25l.54-3.09c.02-.09,.06-.17,.13-.22,.07-.05,.16-.07,.25-.05l1.54,.27c.19,.03,.35,.11,.5,.24,.15,.13,.25,.29,.32,.48,.07,.19,.08,.4,.04,.61-.03,.18-.11,.34-.24,.5-.13,.15-.27,.27-.45,.34,.2,.2,.28,.43,.26,.7,0,.06,0,.12-.01,.17,0,.11,0,.2,0,.25,0,.05,.03,.09,.08,.13,.04,.04,.07,.08,.09,.13Zm-.74-1.77c.07-.05,.14-.12,.19-.22,.06-.09,.1-.2,.12-.32,.02-.1,.01-.2-.01-.29-.02-.09-.06-.17-.11-.23-.05-.06-.11-.1-.17-.11l-1.17-.21-.21,1.22,1.17,.21c.06,.01,.13,0,.2-.06Z"/><path class="cls-2" d="M74.8,21.06c.04,.07,.05,.15,.03,.25s-.08,.16-.15,.19c-.07,.04-.16,.04-.25,.01l-.82-.24-.8,2.73c-.03,.09-.08,.16-.17,.2s-.17,.05-.27,.02c-.1-.03-.17-.08-.21-.16-.05-.08-.05-.17-.03-.26l.79-2.73-.82-.24c-.09-.03-.16-.08-.21-.15-.04-.07-.05-.15-.03-.25,.03-.09,.08-.15,.15-.19,.08-.04,.16-.04,.25-.02l2.32,.67c.09,.03,.16,.08,.21,.15Z"/><path class="cls-2" d="M75.49,25.18c-.09,.04-.17,.04-.26,0-.09-.04-.16-.09-.19-.18-.04-.08-.04-.17,0-.25l1.12-2.94c.03-.09,.09-.15,.18-.19,.08-.04,.17-.04,.27,0,.08,.03,.15,.09,.18,.17,.04,.08,.04,.17,0,.26l-1.12,2.94c-.03,.09-.09,.15-.18,.18Z"/><path class="cls-2" d="M81.26,23.82c.02,.07,.02,.15-.02,.23l-1.39,2.85c-.04,.08-.1,.14-.19,.17-.09,.03-.17,.02-.25-.02-.05-.02-.09-.05-.12-.09-.04-.04-.06-.07-.07-.11l-.68-3.15-1.02,2.09c-.04,.08-.1,.13-.17,.16-.08,.03-.15,.02-.24-.02-.08-.04-.13-.1-.15-.17-.02-.08-.02-.15,.02-.23l1.39-2.85c.04-.08,.1-.14,.19-.17,.08-.03,.17-.02,.25,.02,.05,.02,.09,.06,.13,.1,.04,.04,.06,.08,.07,.13l.67,3.13,1.02-2.1c.04-.08,.09-.13,.17-.16,.08-.03,.15-.02,.23,.02,.08,.04,.13,.1,.15,.17Z"/><path class="cls-2" d="M81.41,28.11c-.09,.02-.18,0-.25-.04-.08-.05-.14-.12-.16-.21s0-.17,.04-.25l1.62-2.69c.05-.08,.12-.13,.21-.15,.09-.02,.18,0,.26,.05,.08,.05,.13,.12,.15,.2,.02,.09,0,.17-.04,.25l-1.62,2.69c-.05,.08-.12,.13-.21,.15Z"/></g><g><path class="cls-2" d="M29.15,75.99s-.07,.08-.12,.1c-.06,.03-.12,.03-.19,.01-.08-.02-.15-.09-.19-.19-.04-.08-.05-.16-.04-.24,.03-.3,.26-.54,.68-.72,.12-.05,.2-.13,.23-.24,.04-.11,.02-.24-.04-.38l-.41-.93-.97,.42c-.09,.04-.17,.05-.25,.02-.08-.02-.13-.08-.17-.15-.04-.1-.05-.19-.02-.29,.03-.1,.08-.17,.17-.2l2.88-1.26c.09-.04,.17-.04,.26,0,.08,.03,.14,.09,.18,.18l.63,1.43c.08,.17,.1,.35,.07,.55s-.1,.37-.22,.53c-.12,.16-.29,.29-.49,.38-.17,.07-.35,.1-.54,.08-.2-.02-.37-.08-.53-.18-.05,.27-.2,.47-.44,.6-.05,.03-.1,.06-.15,.08-.1,.06-.17,.1-.2,.14s-.06,.08-.06,.13c0,.06-.03,.1-.06,.15Zm1.07-1.6c.08,.03,.18,.04,.29,.04,.11,0,.22-.03,.33-.08,.09-.04,.17-.1,.23-.17,.06-.07,.1-.15,.13-.22,.02-.08,.02-.14,0-.21l-.48-1.09-1.13,.49,.48,1.09c.03,.06,.08,.11,.16,.14Z"/><path class="cls-2" d="M31.17,79.34c-.02,.09-.07,.15-.14,.19-.08,.04-.16,.06-.24,.03s-.15-.08-.19-.16l-.92-1.57c-.05-.08-.06-.17-.04-.25,.02-.09,.08-.15,.16-.2l2.72-1.58c.08-.05,.17-.06,.25-.04,.09,.02,.15,.08,.2,.16l.92,1.57c.05,.08,.06,.17,.04,.25-.02,.09-.07,.15-.15,.2-.08,.05-.16,.06-.24,.03-.08-.03-.14-.08-.19-.17l-.74-1.27-.8,.46,.62,1.06c.05,.08,.06,.16,.04,.25-.02,.08-.07,.15-.15,.2-.08,.04-.16,.06-.24,.03-.08-.02-.14-.08-.19-.16l-.62-1.06-.87,.51,.74,1.27c.05,.08,.06,.17,.04,.25Z"/><path class="cls-2" d="M31.96,81.37c-.07-.2-.09-.42-.07-.66,.01-.13,.06-.23,.14-.29,.07-.05,.14-.07,.23-.06,.09,.01,.16,.05,.21,.12,.04,.06,.06,.12,.06,.19,0,.19,0,.35,.04,.5,.04,.14,.11,.29,.22,.44,.12,.16,.26,.28,.42,.34,.16,.06,.29,.06,.4-.02,.13-.1,.19-.23,.18-.4s-.09-.4-.24-.68c-.38-.71-.32-1.24,.18-1.62,.18-.14,.38-.21,.58-.21,.21,0,.41,.05,.6,.16,.19,.11,.37,.27,.52,.47,.14,.18,.24,.38,.3,.58s.09,.39,.08,.57c0,.13-.05,.23-.14,.3-.07,.05-.14,.07-.23,.06-.09-.01-.16-.05-.21-.12-.03-.04-.05-.09-.05-.15,0-.12-.02-.27-.07-.44-.05-.17-.11-.31-.19-.42-.13-.18-.27-.3-.42-.35-.14-.05-.27-.03-.38,.05-.13,.09-.18,.22-.17,.37,.01,.15,.08,.35,.2,.6,.14,.28,.23,.52,.28,.72,.04,.2,.03,.38-.03,.54-.06,.16-.19,.32-.39,.46-.18,.14-.38,.2-.6,.2-.21,0-.42-.06-.62-.17-.2-.12-.38-.27-.52-.47-.16-.21-.27-.41-.33-.62Z"/><path class="cls-2" d="M38.28,83.33c.03,.2,.02,.4-.05,.6s-.18,.38-.34,.53c-.16,.15-.34,.25-.55,.3-.21,.06-.41,.06-.6,.01-.2-.05-.36-.14-.48-.27l-.65-.69-.75,.7c-.07,.07-.15,.1-.23,.1-.08,0-.16-.04-.22-.1-.06-.07-.09-.14-.08-.23,0-.08,.04-.16,.11-.22l2.3-2.15c.07-.06,.15-.1,.24-.09,.09,0,.17,.04,.23,.11l.85,.9c.12,.13,.21,.3,.24,.5Zm-1.37,.84c.09,0,.18,0,.28-.04,.1-.03,.18-.08,.26-.15,.07-.07,.13-.15,.17-.24s.06-.18,.05-.27c0-.09-.03-.16-.08-.21l-.64-.69-.88,.82,.64,.69s.11,.08,.2,.09Z"/><path class="cls-2" d="M40.25,88.71c-.31,.13-.63,.17-.96,.12-.33-.04-.62-.18-.9-.4-.27-.22-.46-.49-.56-.8-.1-.31-.12-.63-.05-.97,.07-.33,.22-.63,.45-.91,.23-.28,.5-.48,.81-.61,.31-.13,.63-.17,.96-.13,.33,.04,.62,.18,.9,.4,.27,.22,.46,.49,.56,.81s.12,.63,.05,.97c-.07,.33-.22,.63-.45,.91-.23,.28-.5,.48-.81,.61Zm.58-1.66c.05-.21,.05-.42-.01-.62-.06-.2-.17-.37-.34-.51-.17-.14-.36-.22-.56-.24s-.41,.01-.61,.11c-.2,.09-.38,.23-.53,.42-.16,.19-.26,.39-.31,.6-.05,.21-.05,.42,0,.62,.06,.2,.17,.37,.34,.51,.17,.14,.35,.22,.56,.24s.41-.01,.61-.1c.2-.09,.38-.23,.53-.42,.15-.19,.26-.39,.31-.6Z"/><path class="cls-2" d="M45.76,88.97c.02,.08,0,.15-.05,.23l-1.67,2.69c-.05,.08-.12,.13-.21,.15-.09,.02-.17,0-.25-.04-.04-.03-.08-.06-.11-.1-.03-.04-.05-.08-.05-.11l-.35-3.2-1.22,1.97c-.05,.07-.11,.12-.19,.14-.08,.02-.16,0-.23-.04-.07-.05-.12-.11-.13-.19-.01-.08,0-.15,.05-.23l1.67-2.69c.05-.08,.12-.13,.21-.15,.09-.02,.17,0,.25,.04,.05,.03,.08,.07,.12,.11s.05,.09,.05,.14l.35,3.18,1.23-1.99c.05-.07,.11-.12,.19-.14,.08-.02,.15,0,.23,.04,.07,.05,.12,.11,.13,.19Z"/><path class="cls-2" d="M45.96,93.19c-.16-.14-.28-.32-.38-.54-.05-.12-.06-.23-.01-.32,.04-.08,.09-.13,.18-.16,.08-.03,.16-.03,.24,0,.06,.03,.11,.07,.14,.14,.08,.17,.17,.31,.28,.42,.1,.11,.24,.2,.41,.28,.18,.08,.36,.12,.53,.1,.17-.02,.28-.09,.34-.21,.07-.15,.06-.3-.04-.44-.09-.15-.27-.3-.54-.48-.67-.44-.88-.94-.61-1.5,.1-.21,.23-.36,.41-.47,.18-.1,.38-.15,.6-.15,.22,0,.45,.06,.68,.17,.21,.1,.39,.22,.54,.36,.15,.15,.27,.3,.34,.46,.06,.12,.07,.23,.02,.33-.03,.08-.09,.13-.18,.16-.08,.03-.16,.03-.24,0-.05-.02-.09-.06-.11-.11-.05-.11-.14-.23-.27-.36-.12-.13-.25-.22-.37-.28-.21-.1-.38-.13-.53-.11-.15,.03-.25,.1-.31,.23-.06,.14-.06,.28,.03,.4s.24,.27,.47,.43c.26,.18,.46,.35,.59,.5,.13,.16,.21,.32,.24,.49,.02,.17-.02,.37-.12,.59-.1,.21-.24,.36-.43,.46-.19,.1-.4,.15-.63,.15-.23,0-.46-.06-.68-.16-.24-.11-.43-.24-.59-.38Z"/><path class="cls-2" d="M52.23,95.33c-.03,.09-.08,.15-.16,.19s-.15,.04-.23,.02c-.06-.02-.11-.06-.15-.11-.04-.05-.06-.12-.07-.19l-.06-.71-1.54-.5-.48,.54c-.04,.06-.1,.1-.16,.12-.06,.02-.12,.02-.18,0-.09-.03-.15-.08-.18-.14-.03-.06-.03-.14,0-.22,0-.03,.03-.06,.05-.09l2.3-2.67c.05-.06,.11-.1,.18-.12,.07-.02,.13-.01,.2,.01,.06,.02,.11,.06,.16,.11,.04,.05,.06,.12,.07,.19l.27,3.45s0,.09-.02,.13Zm-1.75-1.82l1.03,.34-.12-1.38-.91,1.04Z"/><path class="cls-2" d="M56.57,94.77c.09,.18,.11,.38,.06,.63-.08,.42-.26,.69-.54,.81-.27,.12-.58,.14-.91,.08l-1.33-.26c-.09-.02-.16-.07-.21-.14-.05-.08-.06-.16-.05-.25l.62-3.08c.02-.09,.07-.16,.14-.21,.07-.05,.16-.07,.25-.05l1.34,.27c.67,.14,.95,.52,.82,1.15-.03,.16-.1,.29-.2,.4-.1,.11-.23,.18-.39,.22,.17,.11,.3,.26,.39,.43Zm-.85,.85c.11-.07,.19-.19,.22-.36,.04-.21,.01-.36-.08-.44-.1-.09-.22-.15-.38-.18l-.92-.18-.21,1.03,.96,.19c.17,.03,.31,.02,.42-.05Zm.29-2.28c-.06-.09-.15-.14-.28-.17l-.88-.18-.17,.83,.89,.18c.11,.02,.21,0,.3-.05,.09-.06,.15-.14,.18-.26,.03-.14,.01-.26-.04-.35Z"/><path class="cls-2" d="M58.48,96.67c-.08,.06-.16,.08-.25,.07-.1-.01-.17-.05-.23-.12-.06-.07-.08-.15-.07-.25l.33-3.12c0-.09,.05-.17,.12-.22,.07-.06,.16-.08,.26-.07,.09,0,.16,.05,.22,.12,.06,.07,.08,.15,.07,.24l-.33,3.13c0,.09-.05,.17-.13,.22Z"/><path class="cls-2" d="M62.58,96.42c.06,.06,.09,.14,.09,.23,0,.09-.04,.17-.1,.22-.06,.06-.14,.09-.24,.08l-1.76-.04c-.09,0-.17-.03-.23-.1-.06-.06-.09-.14-.09-.24l.07-3.14c0-.09,.04-.17,.1-.23,.07-.06,.15-.09,.25-.09,.09,0,.17,.04,.23,.1,.06,.07,.09,.14,.09,.24l-.06,2.84,1.42,.03c.09,0,.17,.03,.23,.09Z"/><path class="cls-2" d="M64.73,96.76c-.06,.07-.14,.1-.23,.11-.1,0-.18-.02-.25-.08-.07-.06-.1-.14-.11-.23l-.2-3.14c0-.09,.02-.18,.08-.24,.06-.07,.14-.1,.24-.11,.09,0,.17,.02,.24,.08,.07,.06,.11,.14,.11,.23l.2,3.14c0,.09-.02,.18-.09,.24Z"/><path class="cls-2" d="M68.46,92.8c.27,.13,.49,.32,.66,.59,.17,.26,.29,.57,.35,.92,.06,.35,.05,.68-.03,.98-.08,.31-.23,.56-.44,.77-.21,.21-.49,.34-.82,.39l-1.28,.21c-.09,.01-.17,0-.25-.06-.07-.05-.12-.12-.13-.22l-.51-3.1c-.02-.09,0-.18,.05-.25,.05-.07,.12-.12,.22-.13l1.28-.21c.33-.05,.64-.02,.91,.11Zm.22,2.57c.12-.26,.15-.58,.09-.94-.06-.36-.19-.65-.39-.86-.2-.21-.46-.29-.78-.24l-.88,.15,.41,2.52,.88-.14c.32-.05,.54-.21,.66-.48Z"/><path class="cls-2" d="M74.12,94.66c.03,.09,.02,.17-.02,.25-.04,.08-.1,.12-.18,.15-.06,.02-.12,.02-.19,0-.06-.02-.12-.06-.16-.12l-.46-.55-1.55,.46-.08,.72c0,.07-.03,.14-.07,.19-.04,.05-.09,.09-.15,.1-.09,.03-.17,.02-.23-.01s-.1-.09-.13-.18c0-.03-.01-.07-.01-.1l.37-3.5c0-.08,.03-.14,.08-.2s.1-.09,.17-.1c.06-.02,.12-.02,.19,0,.06,.02,.12,.06,.16,.12l2.19,2.67s.05,.08,.06,.12Zm-2.48-.5l1.04-.31-.89-1.06-.15,1.37Z"/><path class="cls-2" d="M76.4,90.19c.29,.06,.55,.19,.79,.4,.23,.21,.42,.48,.56,.81,.14,.33,.21,.65,.21,.96s-.08,.6-.24,.85c-.16,.25-.39,.45-.7,.58l-1.19,.52c-.09,.04-.17,.04-.25,0-.08-.03-.14-.09-.18-.18l-1.26-2.88c-.04-.09-.04-.17,0-.25s.09-.14,.18-.18l1.19-.52c.31-.14,.61-.18,.9-.12Zm.85,2.43c.05-.29,0-.6-.14-.94-.15-.34-.35-.58-.59-.74-.25-.15-.52-.17-.81-.04l-.82,.36,1.03,2.34,.82-.36c.3-.13,.47-.34,.53-.62Z"/><path class="cls-2" d="M81.66,90.75c.09,.02,.15,.07,.19,.14,.05,.08,.06,.16,.03,.24-.03,.08-.08,.15-.16,.19l-1.57,.92c-.08,.05-.17,.06-.25,.04-.09-.02-.15-.07-.2-.16l-1.59-2.71c-.05-.08-.06-.16-.04-.25s.07-.15,.16-.2l1.57-.92c.08-.05,.16-.06,.25-.04s.15,.07,.2,.15c.04,.08,.06,.16,.03,.24-.02,.08-.08,.14-.16,.19l-1.27,.74,.47,.8,1.06-.62c.08-.05,.17-.06,.25-.04,.08,.02,.15,.07,.2,.15,.05,.08,.06,.16,.03,.24-.02,.08-.08,.14-.16,.19l-1.06,.62,.51,.87,1.27-.74c.08-.05,.17-.06,.25-.04Z"/><path class="cls-2" d="M85.54,88.52c-.2,.08-.41,.12-.65,.12-.13,0-.23-.04-.3-.12-.05-.06-.08-.14-.07-.23,0-.09,.04-.16,.11-.22,.05-.04,.11-.07,.18-.07,.19,0,.35-.03,.49-.08,.14-.05,.28-.13,.42-.26,.15-.13,.26-.28,.31-.44,.05-.16,.04-.3-.05-.4-.11-.12-.24-.17-.41-.15-.17,.02-.39,.12-.66,.29-.68,.43-1.22,.4-1.62-.07-.15-.17-.23-.36-.25-.57-.02-.21,.02-.41,.12-.61,.1-.2,.25-.38,.44-.55,.17-.15,.36-.26,.56-.34,.2-.08,.38-.12,.56-.12,.13,0,.24,.04,.31,.12,.05,.06,.08,.14,.07,.23,0,.09-.04,.16-.1,.21-.04,.04-.09,.05-.14,.06-.12,0-.27,.03-.44,.1-.17,.06-.3,.13-.41,.22-.17,.15-.28,.29-.32,.44-.04,.15-.01,.27,.07,.38,.1,.12,.23,.17,.38,.14,.15-.02,.34-.1,.59-.24,.27-.16,.51-.27,.7-.33,.2-.05,.38-.06,.55,0,.17,.05,.33,.17,.49,.35,.15,.17,.23,.37,.24,.58,.01,.21-.03,.43-.13,.63-.1,.21-.25,.39-.43,.55-.2,.17-.4,.29-.59,.37Z"/><path class="cls-2" d="M89.84,83.06c.11,.32,.14,.64,.08,.97-.06,.32-.21,.62-.44,.88-.24,.26-.51,.43-.83,.52-.32,.09-.64,.09-.97,0-.33-.08-.62-.25-.89-.49-.27-.24-.46-.52-.57-.84-.12-.32-.14-.64-.08-.96,.06-.32,.21-.62,.45-.88s.51-.43,.83-.53c.32-.09,.64-.09,.97,0s.62,.25,.89,.49c.27,.24,.46,.52,.57,.84Zm-1.63-.65c-.21-.06-.42-.07-.62-.02-.2,.05-.38,.16-.52,.32-.15,.16-.24,.35-.27,.55-.03,.2,0,.41,.08,.61,.08,.2,.21,.39,.39,.55,.18,.16,.38,.28,.59,.34,.21,.06,.42,.07,.62,.02s.37-.16,.52-.32c.15-.16,.23-.34,.27-.55,.03-.21,0-.41-.07-.62-.08-.21-.21-.39-.39-.55s-.38-.28-.59-.34Z"/><path class="cls-2" d="M90.54,77.99c.06,.04,.11,.11,.14,.19,.03,.09,.02,.17-.03,.25-.04,.05-.08,.09-.15,.12-.17,.1-.31,.23-.43,.4-.14,.21-.23,.42-.25,.63s.02,.42,.12,.61c.1,.19,.25,.36,.46,.5,.35,.25,.68,.34,1,.28,.31-.06,.58-.25,.79-.55,.13-.18,.2-.36,.23-.54,.01-.07,.04-.13,.06-.17,.05-.08,.13-.12,.24-.13,.09,0,.17,.02,.23,.06,.05,.03,.08,.08,.1,.12,.02,.05,.03,.11,.02,.17-.05,.31-.16,.6-.34,.86-.2,.29-.45,.51-.74,.67-.29,.16-.61,.22-.95,.2-.34-.02-.68-.15-1.03-.39-.3-.21-.53-.47-.67-.78s-.2-.63-.17-.97c.04-.34,.16-.66,.37-.96,.18-.26,.41-.47,.69-.61,.11-.06,.22-.05,.32,.02Z"/><path class="cls-2" d="M94.21,78.1c.02,.09,0,.18-.04,.25-.05,.08-.12,.14-.2,.16-.09,.02-.17,.01-.25-.04l-2.73-1.56c-.08-.05-.13-.11-.16-.2-.02-.09,0-.18,.04-.26,.04-.08,.11-.13,.2-.15,.09-.03,.17-.01,.25,.03l2.73,1.56c.08,.05,.13,.12,.15,.21Z"/><path class="cls-2" d="M96.15,73.71c.08,.04,.14,.1,.17,.18,.03,.08,.03,.16,0,.23-.03,.06-.07,.1-.13,.13s-.12,.04-.2,.04l-.72-.02-.67,1.47,.49,.53c.05,.05,.08,.11,.1,.17,.01,.06,0,.12-.02,.18-.04,.09-.09,.14-.16,.16-.07,.02-.14,.02-.22-.02-.03-.01-.06-.03-.09-.06l-2.39-2.58c-.05-.06-.09-.12-.1-.19-.01-.07,0-.13,.04-.2,.03-.06,.07-.11,.13-.14,.06-.04,.12-.05,.2-.04l3.45,.11s.09,.01,.13,.03Zm-2.01,1.54l.45-.99-1.39-.03,.93,1.02Z"/><path class="cls-2" d="M97.1,70.13c.08-.04,.16-.05,.25-.02,.09,.03,.15,.08,.18,.16,.04,.08,.04,.16,.01,.25l-.55,1.68c-.03,.09-.08,.15-.16,.19-.08,.04-.16,.05-.25,.02l-2.99-.98c-.09-.03-.15-.09-.2-.17-.04-.08-.04-.17-.01-.27,.03-.09,.08-.15,.16-.19,.08-.04,.17-.05,.25-.02l2.7,.88,.44-1.35c.03-.09,.08-.16,.16-.2Z"/></g></g></g><g><path class="cls-7" d="M46.5,37.5l-.28,1.63c-.02,.18,.04,.33,.19,.43,.07,.05,.16,.07,.25,.07,.07,0,.14-.02,.22-.05l1.4-.76,1.4,.76c.07,.03,.14,.05,.22,.05,.1,0,.18-.02,.25-.07,.15-.1,.22-.25,.19-.43l-.28-1.63,1.18-1.18c.12-.12,.15-.27,.1-.43-.06-.17-.17-.27-.35-.29l-1.62-.24-.7-1.45c-.07-.17-.2-.25-.39-.25s-.32,.08-.4,.25l-.7,1.45-1.62,.24c-.18,.02-.29,.12-.35,.29-.06,.17-.02,.31,.1,.43l1.18,1.18Z"/><path class="cls-5" d="M59.36,36.35l-.42,2.45c-.04,.28,.06,.5,.29,.65,.11,.07,.24,.11,.38,.11,.11,0,.22-.02,.33-.07l2.11-1.15,2.11,1.15c.11,.05,.22,.07,.33,.07,.15,0,.27-.04,.38-.11,.23-.16,.33-.37,.29-.65l-.42-2.45,1.78-1.78c.18-.18,.23-.4,.14-.65-.08-.25-.26-.4-.53-.44l-2.44-.36-1.05-2.18c-.11-.25-.31-.38-.59-.38s-.49,.13-.61,.38l-1.05,2.18-2.44,.36c-.27,.04-.44,.18-.53,.44-.08,.25-.04,.47,.15,.65l1.78,1.78Z"/><path class="cls-6" d="M74.03,37.5l-.28,1.63c-.02,.18,.04,.33,.19,.43,.07,.05,.16,.07,.25,.07,.07,0,.14-.02,.22-.05l1.4-.76,1.4,.76c.07,.03,.15,.05,.22,.05,.1,0,.18-.02,.25-.07,.15-.1,.22-.25,.19-.43l-.28-1.63,1.18-1.18c.12-.12,.15-.27,.1-.43-.05-.17-.17-.27-.35-.29l-1.62-.24-.7-1.45c-.07-.17-.2-.25-.39-.25s-.32,.08-.41,.25l-.7,1.45-1.62,.24c-.18,.02-.29,.12-.35,.29-.06,.17-.02,.31,.1,.43l1.18,1.18Z"/></g><g><g><path class="cls-2" d="M43.5,57.13c-.22,.09-.45,.18-.67,.28-.33,.16-.65,.32-.98,.48-.71,.37-1.43,.74-2.14,1.11-.24,.13-.28,.12-.48-.14,.13-.08,.25-.18,.39-.24,.4-.2,.81-.39,1.22-.6,.49-.25,.99-.5,1.49-.75,.11-.05,.24-.06,.36-.09,.02,0,.04,0,.05-.01,.27-.3,.66-.37,1.01-.5,.82-.34,1.65-.63,2.48-.94,.14-.05,.28-.08,.46-.14,.04-.22,.09-.46,.16-.77-.15,.03-.25,.04-.35,.07-1.61,.53-3.19,1.11-4.72,1.84-1.03,.48-2.03,1.03-3.05,1.55-.07,.03-.14,.07-.21,.11-.14-.17-.44-1.08-.56-1.67,.22-.14,.44-.29,.67-.44,2.08-1.27,4.26-2.35,6.55-3.2,.61-.22,1.23-.42,1.84-.61,.19-.06,.28-.15,.33-.35,.28-1.57,.58-3.12,.88-4.68,.09-.5-.01-.45,.53-.45h2.02c-.29,1.58-.59,3.12-.88,4.73,.2-.03,.35-.04,.48-.08,.05-.02,.09-.12,.11-.19,.2-1.03,.39-2.06,.59-3.1,.02-.08,.03-.18,.05-.26,.06-.29,.15-.34,.47-.22-.22,1.22-.45,2.44-.68,3.7,.77-.07,1.51-.16,2.26-.23,.76-.07,1.5-.14,2.26-.19s1.51-.08,2.27-.11c.76-.02,1.51-.04,2.27-.04,.75-.01,1.49-.01,2.24,.01,.76,.02,1.51,.06,2.27,.11s1.51,.11,2.26,.16c.76,.06,1.5,.13,2.26,.21,.75,.08,1.5,.19,2.07,.25-.79,0-1.76-.01-2.72,0-.87,.01-1.74,.02-2.63,.05-.84,.03-1.69,.06-2.53,.12-.99,.06-1.98,.14-2.96,.24-1.08,.12-2.15,.26-3.24,.4-1.88,.24-3.74,.59-5.58,1.01-.5,.12-1.01,.24-1.51,.37-.14,.03-.28,.08-.44,.14-.46,2.46-.93,4.92-1.39,7.39h-2.46c.35-1.82,.68-3.63,1.03-5.5-.15,.04-.24,.06-.33,.11-.84,.33-1.69,.65-2.53,.97-.09,.03-.19,.06-.27,.09-.04-.02-.07-.05-.11-.07-.01,.02-.01,.03-.02,.05,.04,0,.08,.01,.13,.02Z"/><path class="cls-2" d="M69,51.49c-.76-.08-1.5-.15-2.26-.21s-1.5-.12-2.26-.16-1.51-.08-2.27-.11c-.75-.02-1.49-.02-2.24-.01-.76,0-1.51,.02-2.27,.04-.76,.02-1.51,.06-2.27,.11-.76,.05-1.5,.12-2.26,.19-.75,.06-1.49,.15-2.26,.23,.23-1.26,.46-2.48,.68-3.7-.34-.12-.41-.08-.47,.22-.02,.08-.04,.17-.05,.26-.2,1.03-.39,2.07-.59,3.1-.01,.07-.05,.17-.11,.19-.14,.04-.27,.05-.47,.08,.29-1.61,.59-3.15,.88-4.73h-2.02c-.54,0-.42-.05-.53,.45-.3,1.56-.6,3.12-.88,4.68-.04,.21-.14,.29-.33,.35-.62,.19-1.24,.39-1.84,.61-2.29,.84-4.48,1.92-6.55,3.21-.23,.15-.45,.29-.67,.44,.12,.58,.42,1.5,.56,1.67,.06-.03,.14-.07,.21-.11,1.02-.52,2.02-1.05,3.05-1.55,1.52-.73,3.11-1.31,4.72-1.84,.09-.03,.2-.04,.35-.08-.03,.14-.05,.27-.07,.39-.03,.14-.05,.26-.07,.38-.18,.05-.33,.08-.46,.14-.83,.3-1.66,.6-2.48,.94-.35,.14-.75,.2-1.01,.5-.01,.01-.03,.01-.05,.01-.12,.03-.25,.04-.36,.09-.5,.24-.99,.5-1.49,.75-.4,.2-.81,.39-1.21,.59-.14,.07-.26,.16-.39,.24,.19,.25,.24,.26,.48,.14,.71-.37,1.43-.75,2.14-1.11,.33-.17,.65-.34,.98-.48,.22-.11,.44-.19,.66-.28h0c.09-.03,.19-.06,.27-.11,.84-.33,1.68-.65,2.53-.97,.08-.03,.18-.05,.33-.11-.02,.09-.03,.19-.05,.27l-.03,.16-.95,5.06h2.46c.46-2.47,.93-4.93,1.39-7.39,.16-.05,.29-.11,.44-.14,.5-.13,1.01-.25,1.51-.37,1.85-.42,3.7-.77,5.58-1.01,1.08-.14,2.15-.28,3.24-.4,.99-.11,1.98-.18,2.96-.24,.84-.05,1.69-.08,2.53-.12,.87-.03,1.74-.04,2.63-.05,.97-.01,1.93,0,2.72,0-.59-.03-1.34-.14-2.09-.22Zm-25.63,5.6s.01-.03,.02-.05c.03,.02,.05,.05,.08,.07-.03-.01-.06-.01-.11-.02Z"/><path class="cls-2" d="M69.67,61.64c-.53,.01-1.02,0-1.55,.01-.06-.59-.02-1.17-.03-1.74-.01-.58,0-1.16,0-1.74v-3.44c.22-.07,2.25-.09,2.63-.03,.34,1.38,.67,2.76,1.01,4.15h.08c.37-1.38,.66-2.79,1.02-4.17h2.6v6.95h-1.57c-.03-.28-.01-.57-.01-.85v-4.32s-.04-.01-.06-.02c-.03,.06-.07,.12-.08,.18-.26,1.09-.53,2.2-.78,3.29l-.38,1.58s-.03,.09-.06,.15h-1.44c-.41-1.73-.83-3.47-1.24-5.2h-.07c-.01,.06-.03,.13-.04,.2v4.67c-.02,.11-.02,.21-.02,.36Z"/><path class="cls-2" d="M55.93,59.25c.06,.21,.11,.36,.17,.5,.24,.64,1.01,.85,1.58,.57,.25-.13,.4-.35,.41-.63,.01-.29-.14-.52-.4-.63-.27-.13-.57-.21-.86-.29-.53-.15-1.04-.28-1.51-.57-.77-.46-1.09-1.09-.94-1.99,.14-.8,.66-1.29,1.43-1.52,.38-.12,.77-.15,1.17-.15,.53,0,1.04,.01,1.53,.2,.77,.3,1.15,.89,1.25,1.68v.06s-.01,.03-.03,.07c-.28,.02-.57,.05-.86,.07s-.59,.03-.89,.04c-.04-.09-.08-.19-.12-.29-.19-.6-.94-.71-1.35-.53-.21,.09-.34,.26-.34,.5s.15,.36,.34,.44c.18,.07,.37,.13,.56,.17,.69,.18,1.4,.34,2.02,.71,.58,.36,.87,.88,.91,1.56,.07,1.23-.74,2.31-2.17,2.48-.64,.07-1.27,.07-1.9-.06-1.08-.23-1.79-1.1-1.81-2.27,.6-.05,1.2-.09,1.81-.14Z"/><path class="cls-2" d="M83.28,61.24l-1.55-4.38c-.22-.64-.44-1.28-.67-1.91-.05-.14-.08-.27-.28-.27-.61,.01-1.22,0-1.83,0-.13,0-.19,.05-.23,.18-.13,.39-.27,.78-.41,1.17-.59,1.68-1.18,3.36-1.78,5.05-.06,.18-.13,.37-.19,.58h2c.08-.29,.17-.59,.24-.89,.06-.24,.08-.26,.35-.26h1.8q.29,0,.38,.29c.08,.29,.17,.58,.26,.87h2.04c-.05-.18-.08-.29-.13-.41Zm-4.11-2.23c-.03-.25,.55-2.29,.71-2.53,.27,.84,.48,1.66,.74,2.53h-1.45Z"/><path class="cls-2" d="M59.35,53.07c-.05,.02-.16,.07-.26,.08-.34,.05-.68,.09-1.02,.14-.06,.01-.14,.02-.2,.01-.18-.02-.35,.02-.52,.06-.36,.08-.74,.14-1.1,.19-.12,.02-.23,.03-.35,.05-.28,.05-.56,.09-.84,.15-.32,.06-.63,.13-.96,.19-.03,.01-.05,.01-.08,.02-.24,.05-.49-.01-.75,.13-.22,.13-.52,.13-.78,.19-.26,.06-.52,.13-.78,.19-.39,.09-.78,.19-1.18,.28-.19,.04-.27,.14-.3,.34-.28,1.58-.58,3.14-.89,4.71-.07,.36-.11,.73-.19,1.08-.08,.36-.14,.71-.21,1.07-.05,.26-.08,.3-.32,.29-.7-.02-1.41-.04-2.12-.06,.05-.11,.16-.07,.25-.07h1.36c.36,0,.35,0,.42-.35,.03-.13,.08-.25,.14-.38,.01-.02,.02-.03,.02-.05-.06-.49,.13-.95,.2-1.42,.03-.23,.13-.45,.17-.68,.03-.17,.02-.35,.05-.53,.17-.91,.35-1.83,.52-2.74,.06-.35,.14-.68,.19-1.03,.03-.21,.12-.33,.34-.38,.53-.12,1.05-.26,1.58-.37,.56-.11,1.09-.27,1.65-.37s1.11-.21,1.68-.32c.56-.09,1.12-.19,1.68-.26,1-.14,2-.27,3-.4,.62-.07,1.25-.14,1.87-.18,.25-.02,.5-.03,.76-.05,.79-.07,1.59-.13,2.38-.13,.47,0,.94-.08,1.4-.07,.46,.01,.93-.04,1.39-.04,.99-.01,1.97,0,2.95,0,.03,0,.07,.02,.14,.03-.05,.04-.07,.08-.11,.08-.07,.01-.16,.02-.23,.02-.98,.01-1.97,.03-2.94,.04-.21,0-.41-.02-.62-.02-.11,0-.22-.02-.33,.01-.27,.09-.55,.06-.82,.07-.88,.05-1.77,.11-2.65,.17-.54,.04-1.07,.08-1.62,.13-.28,.02-.57,.05-.85,.07-.14,.01-.27,.01-.41,.01-.09,0-.2,.01-.29,.02-.08,.03-.22,.04-.4,.06Z"/><path class="cls-2" d="M64.93,57.25v-2.64c.13,.04,.22,.07,.32,.12,.82,.43,1.41,1.08,1.81,1.91,.08,.18,.14,.36,.21,.56-.27,.12-.53,.02-.78,.04-.25,.01-.52,0-.77,0-.24,.01-.49,.01-.79,.01Z"/><path class="cls-2" d="M63.29,54.69v2.33c0,.15-.07,.21-.22,.21-.6,0-1.2,.01-1.8,0-.28,0-.34-.11-.22-.38,.08-.19,.13-.38,.3-.53,.08-.07,.09-.23,.17-.34,.36-.5,.83-.88,1.35-1.2,.08-.05,.18-.13,.29-.04,.01,.02,.07-.03,.13-.06Z"/><path class="cls-2" d="M60.65,46.4c-.3-.01-.61-.01-.91-.01-.26,0-.28,.03-.29,.29v1.21h0v1.24c0,.22,.07,.3,.27,.29,.37-.01,.75-.02,1.11-.05,.57-.05,1.02-.45,1.15-1,.03-.13,.03-.25,.05-.38,.09-.76-.33-1.57-1.38-1.6Zm.78,2.04c-.08,.22-.23,.39-.45,.47-.32,.12-.64,.16-.98,.08-.08-.22-.11-1.84-.02-2.25,.29,.02,.58,.02,.85,.07,.35,.07,.56,.33,.64,.66,.08,.32,.07,.65-.04,.96Z"/><path class="cls-2" d="M63.61,64.06c-.18-.45-.55-.62-1-.64-.75-.04-1.27,.24-1.42,1.01-.06,.34-.05,.7-.01,1.05,.04,.37,.23,.68,.59,.82,.2,.07,.42,.09,.62,.15,.58,0,1.09-.26,1.28-.98,.03-.13,.05-.25,.06-.38,.05-.34,.01-.69-.13-1.03Zm-.58,1.63c-.27,.43-.98,.43-1.21-.02-.23-.47-.24-.97,0-1.44,.14-.28,.4-.4,.7-.38,.33,.02,.55,.21,.62,.54,.04,.17,.06,.35,.07,.45,0,.34-.03,.61-.19,.85Z"/><path class="cls-2" d="M61.02,58.92h2.06c.13,0,.2,.04,.2,.19,0,.73,0,1.45-.01,2.18,0,.02-.02,.05-.03,.08-.18,.01-.3-.12-.45-.19-.75-.41-1.28-1.02-1.66-1.78-.04-.09-.12-.18-.04-.3,.04-.02-.02-.11-.06-.18Z"/><path class="cls-2" d="M64.95,61.44v-2.47c.2-.06,1.89-.08,2.27-.01-.4,1.14-1.14,1.93-2.27,2.48Z"/><path class="cls-2" d="M56.4,64.64c-.01-.59-.36-1.02-.94-1.11-.35-.06-.7-.05-1.05-.06-.24,0-.26,.02-.26,.27v1.18h0v1.21c0,.22,.02,.24,.23,.24,.29,0,.59,.02,.88-.01,.66-.07,.98-.38,1.09-.9,.04-.25,.04-.54,.04-.81Zm-.61,.84c-.14,.37-.66,.6-1.03,.48-.15-.04-.13-.16-.13-.26v-1.56c0-.07,.02-.15,.02-.22,.55-.13,.94,.02,1.11,.41,.05,.11,.06,.22,.09,.34,.08,.28,.02,.56-.07,.81Z"/><path class="cls-2" d="M74.02,65.02l.13-.08c.43-.27,.42-.55,.36-.91-.05-.34-.33-.5-.66-.53-.3-.02-.61-.03-.91-.03-.26,0-.32,.04-.32,.3v2.35c0,.22,.06,.27,.28,.27s.25-.04,.25-.26v-.91c.42-.11,.55,.06,.66,.33,.09,.21,.18,.43,.25,.66,.05,.14,.14,.22,.28,.21,.11,0,.22-.03,.36-.05-.22-.48-.29-.98-.68-1.35Zm-.29-.29c-.18,.06-.36,.08-.56,.02v-.82c.21-.12,.41-.06,.6,0,.17,.05,.23,.21,.23,.38-.01,.19-.08,.35-.27,.42Z"/><path class="cls-2" d="M67.37,64.06c-.18-.06-.37-.13-.55-.18-.56-.17-1.11,.15-1.21,.82-.03,.23,0,.49,.07,.73,.16,.48,.6,.63,1.01,.56,.14-.02,.23-.09,.23-.26v-.38c0-.15-.07-.21-.22-.21h-.39c-.01-.12-.01-.23-.02-.38h.97c.11,0,.16,.07,.16,.18v1.15c0,.12-.07,.19-.17,.22-.52,.17-1.04,.22-1.55-.04-.22-.12-.38-.28-.47-.5-.25-.53-.25-1.07,0-1.6,.27-.58,.75-.75,1.37-.74,.18,0,.37,.04,.55,.09,.29,.11,.34,.21,.22,.55Z"/><path class="cls-2" d="M56.33,49.07c-.18-.39-.3-.8-.61-1.14,.09-.07,.17-.13,.25-.19,.17-.13,.25-.29,.25-.5,.02-.47-.26-.8-.76-.84-.33-.02-.65-.02-.97-.02-.29,0-.32,.01-.32,.33v2.42c0,.07,.01,.16,.01,.23,.06,.02,.12,.05,.18,.06,.23,.03,.3-.04,.29-.27,0-.04-.01-.08-.01-.12,.01-.3-.05-.62,.05-.94,.25-.05,.48-.03,.66,.16,.08,.08,.14,.19,.19,.29,.11,.23,.2,.47,.3,.7,.07,.16,.29,.24,.44,.16,.18-.09,.06-.23,.02-.34Zm-.9-1.44c-.23,.09-.47,.08-.75,.04v-.87c.24-.06,.47-.04,.69,0,.2,.03,.33,.21,.34,.4,.01,.17-.11,.36-.28,.43Z"/><path class="cls-2" d="M59.29,65.05c.15-.17,.33-.29,.4-.47,.23-.56-.09-1.06-.69-1.1-.29-.02-.59-.01-.88-.01-.2,0-.25,.05-.25,.24-.01,.82,0,1.65-.01,2.47,0,.15,.07,.2,.19,.2,.09,0,.19-.02,.28-.03,.07-.4-.02-.79,.06-1.16,.4-.04,.48,0,.63,.32,.08,.19,.16,.38,.24,.57,.14,.35,.24,.39,.6,.26,.01-.29-.28-.94-.57-1.28Zm-.47-.29c-.14,.02-.27,0-.41,0-.07-.26-.05-.5-.03-.75,0-.04,.04-.12,.06-.12,.18,0,.37-.01,.55,.03,.16,.03,.22,.18,.23,.35,.01,.27-.12,.45-.4,.48Z"/><path class="cls-2" d="M80.47,66.26c-.28-.86-.58-1.73-.86-2.6-.04-.15-.12-.22-.27-.21h-.18q-.28,0-.38,.26c-.19,.58-.38,1.16-.58,1.73-.09,.29-.19,.59-.29,.88,.4,.14,.47,.11,.58-.25,.02-.05,.04-.12,.05-.17,.03-.14,.12-.22,.26-.22,.24,.01,.49,.01,.74,.01,.15,0,.21,.07,.25,.2,.04,.16,.11,.32,.16,.46h.49c.02-.06,.03-.08,.03-.11Zm-1.74-.96c.15-.47,.27-.86,.4-1.26h.07c.16,.39,.29,.79,.39,1.21-.29,.13-.55,.02-.86,.05Z"/><path class="cls-2" d="M71.2,66.01c-.23-.71-.48-1.43-.71-2.14-.15-.46-.12-.39-.57-.4-.17,0-.25,.05-.3,.21-.27,.83-.55,1.66-.81,2.48-.02,.06-.01,.13-.02,.19,.34,.09,.42,.06,.49-.14q.18-.5,.71-.5h.08c.56,.02,.46-.01,.62,.47,.07,.22,.08,.23,.3,.23,.08,0,.17-.02,.28-.03-.03-.15-.05-.26-.08-.37Zm-1.62-.75c.11-.42,.21-.82,.4-1.26,.05,.11,.07,.14,.08,.18,.12,.35,.22,.7,.35,1.09-.28,.02-.55,.09-.83-.01Z"/><path class="cls-2" d="M63.14,48.03v.96c.43,.12,.87,0,1.29,.08,.08,.28,.05,.35-.2,.36-.44,.01-.88,.01-1.32,0-.22,0-.28-.06-.28-.28v-2.48c0-.23,.03-.26,.25-.26,.46-.01,.93,0,1.39,0,.12,0,.21,.02,.21,.18,0,.14-.08,.2-.2,.2-.25,.01-.52,0-.77,0h-.37v.82c.2,.09,.41,.04,.61,.05,.12,.01,.23,0,.36,0,.14,0,.2,.06,.2,.19s-.07,.18-.19,.18h-.7c-.07,0-.15,0-.27,.01Z"/><path class="cls-2" d="M58.78,46.42c.04,.3,.01,.36-.24,.36h-1.06c-.03,.28-.03,.55,.01,.86,.23,0,.46,.01,.68,.01h.26c.13-.01,.21,.04,.21,.18s-.06,.2-.2,.2h-.65c-.09,0-.19,.01-.32,.01-.05,.33-.03,.63-.02,.97,.12,.01,.22,.03,.33,.03,.27,.01,.55,.01,.82,.01,.11,0,.2,.02,.21,.16s-.06,.2-.19,.21c-.08,.01-.18,.01-.26,.01h-.95c-.08,0-.18-.01-.26-.01-.14-.01-.21-.09-.2-.24,.01-.17,0-.34,0-.5v-1.98c0-.28,.02-.3,.3-.3h1.29c.08,.01,.15,.03,.23,.03Z"/><path class="cls-2" d="M83.21,64c-.09-.04-.2-.09-.29-.12-.13-.03-.25-.05-.38-.05-.14,0-.24,.07-.29,.21-.04,.14-.03,.27,.08,.38,.07,.06,.16,.12,.24,.17,.12,.06,.25,.12,.37,.19,.41,.22,.56,.54,.47,.98-.07,.36-.39,.63-.8,.67-.23,.02-.47,.01-.69-.08-.28-.12-.33-.2-.23-.56,.07,.03,.14,.05,.2,.08,.2,.11,.4,.15,.63,.13,.2-.02,.32-.12,.36-.29s0-.33-.18-.43c-.18-.12-.39-.2-.57-.3-.37-.21-.52-.58-.4-.98,.08-.29,.27-.48,.57-.53,.21-.03,.43-.03,.64,0,.33,.04,.38,.18,.27,.54Z"/><path class="cls-2" d="M76.56,66.38h-.46v-2.89h.43c.06,.21,.08,2.34,.03,2.89Z"/><path class="cls-2" d="M82.48,52.01c-.56-.02-1.01,.41-1.02,.96s.42,1.01,.96,1.02c.56,.01,1-.41,1.01-.97,.01-.58-.38-1-.95-1.01Zm-.03,1.87c-.46,0-.9-.42-.89-.88,0-.49,.41-.9,.89-.9s.9,.41,.89,.9c-.01,.48-.42,.88-.89,.88Z"/><path class="cls-2" d="M71.53,52.55h-.76q.17-.13,.39-.08c.14,.02,.25,.05,.37,.08h0Z"/><path class="cls-2" d="M43.5,57.13l-.13-.03s.01-.03,.02-.05c.03,.03,.06,.06,.11,.08h0Z"/><path class="cls-2" d="M82.56,53.06s.07-.05,.11-.07c.11-.07,.18-.16,.14-.29-.04-.14-.15-.19-.27-.19-.16-.01-.3,0-.47,0v.98c.05-.08,.06-.16,.07-.24,.02-.16,.12-.21,.24-.14,.08,.04,.15,.13,.21,.2,.06,.07,.11,.16,.17,.23,.02-.02,.05-.03,.07-.04-.08-.16-.18-.29-.26-.43Zm-.07-.11c-.3,.06-.38-.03-.29-.37,.12,0,.24-.02,.36,.01,.05,.01,.13,.12,.13,.17s-.08,.12-.13,.17c-.02,.02-.05,.02-.06,.02Z"/></g><path class="cls-2" d="M46.57,56.31c-.11,.58-.21,1.15-.32,1.7,.04-.27,.18-.99,.32-1.7Z"/><path class="cls-2" d="M46.77,55.23l-.2,1.16h-.02l.03-.15c.02-.09,.03-.19,.05-.27-.16,.04-.24,.06-.33,.11-.84,.33-1.69,.65-2.53,.97-.09,.03-.19,.06-.27,.11h0c-.22,.09-.44,.18-.66,.28-.33,.16-.65,.32-.98,.48-.71,.37-1.43,.74-2.14,1.11-.24,.13-.28,.12-.48-.14,.13-.08,.25-.18,.39-.24,.4-.2,.81-.39,1.21-.59,.49-.25,.99-.5,1.49-.75,.11-.05,.24-.06,.36-.09,.02,0,.04,0,.05-.01,.27-.3,.66-.37,1.01-.5,.82-.34,1.65-.63,2.48-.94,.14-.05,.28-.08,.46-.14,.02-.14,.05-.26,.08-.4h0Z"/></g></g></g></svg>