<?xml version="1.0" standalone="no"?>
<!DOCTYPE svg PUBLIC "-//W3C//DTD SVG 20010904//EN"
 "http://www.w3.org/TR/2001/REC-SVG-20010904/DTD/svg10.dtd">
<svg version="1.0" xmlns="http://www.w3.org/2000/svg"
 width="700.000000pt" height="700.000000pt" viewBox="0 0 700.000000 700.000000"
 preserveAspectRatio="xMidYMid meet">
<metadata>
Created by potrace 1.14, written by Peter Selinger 2001-2017
</metadata>
<g transform="translate(0.000000,700.000000) scale(0.100000,-0.100000)"
fill="#000000" stroke="none">
<path d="M2370 5171 c-94 -26 -169 -121 -173 -219 -1 -42 -2 -43 -31 -36 -52
11 -104 6 -153 -16 -59 -26 -78 -43 -112 -100 l-26 -45 -5 -499 -5 -499 -31
49 c-18 27 -55 89 -83 137 -38 64 -67 100 -109 133 -148 116 -358 112 -438 -9
-42 -63 -43 -118 -4 -262 119 -439 257 -715 467 -931 148 -153 245 -279 308
-404 82 -161 114 -360 80 -490 -24 -92 -24 -92 -8 -123 19 -38 55 -51 97 -33
36 15 48 38 71 136 14 63 15 232 1 290 -3 14 -9 38 -11 53 -3 16 -15 56 -27
90 -66 195 -182 371 -377 570 -169 172 -285 377 -384 677 -68 207 -94 316 -80
339 23 36 153 20 208 -27 21 -17 85 -106 85 -117 0 -3 25 -45 57 -93 102 -157
200 -262 313 -337 119 -78 179 -84 206 -20 19 46 6 77 -45 110 -23 14 -44 25
-49 25 -4 0 -24 14 -45 31 l-37 30 0 564 0 564 23 27 c27 31 64 35 102 10 14
-9 26 -26 26 -39 1 -12 2 -243 3 -513 1 -524 2 -535 50 -548 57 -15 115 10
117 52 0 9 2 300 2 645 l2 629 32 28 c17 16 40 27 50 25 10 -2 24 -4 31 -4 7
-1 24 -12 37 -26 l25 -24 0 -644 0 -644 30 -26 c17 -15 30 -33 30 -41 0 -27
61 -149 113 -229 38 -57 106 -131 251 -270 109 -106 220 -213 247 -239 43 -41
52 -56 51 -78 -8 -124 -18 -164 -83 -333 -68 -175 -99 -294 -106 -408 -10
-163 9 -223 73 -235 24 -5 37 0 60 19 28 25 29 26 26 123 -2 86 1 124 22 219
12 58 32 118 77 236 27 71 56 157 64 191 7 33 16 62 18 64 3 3 19 -7 36 -22
41 -34 82 -34 123 1 33 28 37 28 42 -1 11 -55 32 -121 75 -234 83 -219 101
-298 98 -449 -2 -102 -2 -103 26 -127 33 -28 58 -30 92 -8 58 38 59 228 2 444
-8 30 -38 115 -66 188 -57 146 -79 230 -82 310 -3 52 -1 54 47 99 27 25 125
118 218 207 93 88 171 163 175 166 46 36 170 225 197 301 12 31 31 59 51 75
l33 25 0 655 c0 450 3 662 11 676 6 11 26 26 44 34 39 16 69 8 100 -26 20 -22
20 -37 21 -661 l0 -639 24 -25 c33 -35 88 -34 120 0 l24 26 2 507 c1 279 2
513 3 519 2 19 48 46 77 46 14 0 36 -11 50 -23 l24 -23 0 -568 0 -567 -38 -30
c-20 -17 -59 -40 -84 -53 -59 -28 -76 -65 -52 -115 21 -43 61 -53 118 -28 151
66 316 237 446 463 29 50 64 102 79 117 54 55 177 86 215 55 23 -19 20 -42
-18 -182 -110 -396 -232 -632 -439 -848 -227 -236 -340 -419 -397 -647 -39
-153 -32 -349 16 -450 21 -44 66 -59 108 -35 39 22 49 61 29 114 -26 68 -23
262 6 357 59 195 164 359 357 556 211 216 351 482 464 879 69 240 66 290 -15
369 -107 104 -350 61 -462 -83 -16 -20 -54 -79 -85 -131 -97 -163 -87 -199
-88 345 0 299 -4 494 -10 517 -33 118 -176 199 -288 164 -12 -4 -22 -4 -22 1
-8 157 -109 265 -250 265 -117 0 -216 -79 -244 -195 -6 -24 -10 -27 -29 -21
-38 13 -108 5 -153 -17 -80 -38 -134 -124 -134 -212 0 -34 -1 -35 -27 -28 -44
12 -104 3 -160 -24 -83 -41 -126 -114 -128 -218 l-1 -61 -50 -31 c-28 -16 -69
-45 -93 -64 l-42 -34 -22 21 c-12 11 -53 40 -92 65 l-70 45 1 48 c2 106 -45
189 -130 229 -55 26 -123 35 -163 21 -21 -7 -23 -4 -23 31 0 148 -145 267
-282 232 -25 -7 -29 -4 -34 19 -35 143 -171 223 -314 183z m425 -365 c22 -10
37 -24 41 -41 5 -21 9 -287 5 -357 -1 -10 -21 -28 -48 -42 -27 -13 -58 -34
-70 -45 -12 -12 -25 -21 -28 -21 -3 0 -5 105 -5 233 0 243 1 252 45 275 25 14
20 14 60 -2z m1502 -25 c12 -20 21 -466 10 -477 -3 -4 -16 4 -29 16 -13 12
-45 33 -73 46 l-50 23 1 178 c0 98 4 189 8 201 17 50 105 59 133 13z m-1162
-251 c9 -10 17 -32 18 -50 l2 -33 -75 -2 -76 -3 -2 28 c-5 70 86 112 133 60z
m839 1 c9 -10 19 -34 21 -53 l4 -35 -79 1 c-79 1 -80 1 -80 27 0 15 9 38 21
53 25 32 86 37 113 7z m-787 -252 c79 -20 124 -49 207 -132 75 -76 80 -79 115
-73 20 3 44 15 54 28 152 190 332 235 542 134 147 -69 198 -171 190 -376 -4
-106 -28 -197 -80 -301 -61 -120 -82 -143 -416 -460 -249 -237 -294 -278 -299
-279 -8 0 -337 310 -530 500 -145 142 -212 256 -257 434 -3 11 -7 68 -9 126
-4 158 29 248 120 317 41 31 128 71 176 80 13 2 26 6 27 7 9 9 119 5 160 -5z"/>
</g>
</svg>
