<?xml version="1.0" standalone="no"?>
<!DOCTYPE svg PUBLIC "-//W3C//DTD SVG 20010904//EN"
 "http://www.w3.org/TR/2001/REC-SVG-20010904/DTD/svg10.dtd">
<svg version="1.0" xmlns="http://www.w3.org/2000/svg"
 width="700.000000pt" height="700.000000pt" viewBox="0 0 700.000000 700.000000"
 preserveAspectRatio="xMidYMid meet">
<metadata>
Created by potrace 1.14, written by Peter Selinger 2001-2017
</metadata>
<g transform="translate(0.000000,700.000000) scale(0.100000,-0.100000)"
fill="#000000" stroke="none">
<path d="M1842 6005 c-160 -37 -275 -170 -289 -335 l-6 -67 -51 12 c-178 41
-356 -65 -416 -248 -9 -28 -12 -219 -12 -763 l0 -726 -38 53 c-22 30 -73 113
-115 184 -132 229 -243 320 -437 361 -90 19 -210 13 -272 -15 -98 -43 -170
-140 -184 -249 -7 -48 -3 -78 24 -184 121 -474 280 -871 453 -1133 28 -43 51
-80 51 -82 0 -5 77 -106 110 -143 11 -14 77 -81 144 -150 138 -140 225 -244
307 -370 227 -343 304 -689 219 -970 -25 -81 -25 -97 0 -138 53 -86 174 -70
214 27 37 93 56 230 52 371 -5 159 -9 185 -42 309 -72 273 -223 540 -459 811
-16 19 -85 91 -153 160 -290 294 -494 707 -655 1326 -31 117 -33 134 -21 162
16 38 43 47 127 39 129 -11 216 -75 299 -221 215 -380 443 -623 692 -740 84
-39 150 -27 181 34 37 72 10 133 -81 180 -34 17 -89 51 -121 74 l-58 43 0 845
0 845 27 35 c48 63 133 61 182 -5 21 -28 21 -35 22 -767 1 -406 4 -754 8 -774
10 -51 55 -86 112 -86 25 0 59 7 75 16 61 31 59 -6 59 1020 0 1047 -5 970 72
1014 62 35 141 11 174 -53 14 -26 16 -142 15 -978 l-2 -948 39 -38 c21 -21 45
-56 52 -78 19 -60 85 -198 126 -268 101 -167 192 -264 664 -707 15 -14 66 -63
115 -109 l87 -84 -6 -92 c-5 -87 -40 -245 -67 -310 -6 -16 -13 -34 -15 -40 -2
-9 -11 -30 -54 -130 -35 -82 -102 -306 -120 -400 -25 -137 -32 -300 -19 -401
15 -104 92 -155 176 -116 53 25 61 58 58 217 -5 211 29 362 149 668 55 138 70
182 92 262 2 6 8 38 15 72 l12 62 50 -45 c45 -40 58 -46 102 -46 35 0 45 4 89
43 26 23 48 40 50 38 2 -2 9 -33 16 -69 17 -81 80 -268 120 -355 44 -94 104
-298 124 -420 10 -60 14 -138 11 -232 l-3 -142 34 -31 c19 -16 40 -30 47 -31
7 0 21 -2 31 -4 49 -9 109 46 124 115 7 33 8 267 1 300 -4 19 -10 54 -13 77
-12 95 -87 346 -141 473 -79 186 -111 305 -121 447 l-7 93 89 82 c48 46 107
101 129 123 23 22 111 105 195 185 221 208 295 285 360 370 72 95 149 227 189
328 26 63 38 81 65 96 19 10 39 29 45 43 9 19 11 279 10 989 l-1 964 22 36
c50 79 164 80 218 1 l22 -33 0 -943 c0 -950 0 -963 34 -997 65 -64 196 -34
211 49 4 17 7 368 8 779 l2 747 29 30 c54 56 141 48 183 -16 17 -25 18 -84 18
-871 l0 -844 -55 -41 c-31 -23 -85 -57 -121 -75 -71 -36 -99 -70 -99 -122 0
-46 24 -85 67 -105 47 -23 90 -13 186 42 234 133 431 352 621 688 98 172 199
245 339 245 120 0 128 -28 71 -240 -107 -393 -229 -701 -374 -940 -94 -156
-138 -212 -273 -350 -250 -253 -374 -419 -491 -655 -113 -229 -156 -395 -161
-620 -5 -221 36 -397 101 -439 52 -35 131 -17 164 36 25 41 25 69 1 138 -21
59 -35 164 -34 245 0 54 13 176 19 186 2 3 6 20 9 37 12 67 59 201 106 297 95
197 239 391 446 600 137 139 197 212 280 345 176 280 308 600 430 1040 55 199
62 266 38 345 -23 73 -88 145 -162 182 -47 23 -71 27 -147 29 -233 6 -416
-103 -541 -321 -71 -124 -168 -274 -177 -275 -3 0 -6 321 -6 713 0 512 -4 726
-12 758 -24 91 -100 188 -178 225 -82 39 -212 51 -264 23 -11 -6 -21 -9 -23
-7 -1 2 -5 30 -8 63 -15 188 -160 337 -340 349 -106 6 -209 -32 -286 -106 -43
-42 -97 -142 -104 -193 -3 -24 -8 -29 -23 -25 -10 3 -57 5 -104 5 -71 0 -94
-5 -140 -27 -129 -62 -201 -178 -205 -328 -1 -39 -3 -44 -20 -40 -11 3 -58 5
-105 5 -71 0 -94 -4 -140 -26 -134 -64 -200 -174 -205 -342 -1 -48 -4 -89 -6
-90 -2 -2 -37 -22 -77 -46 -39 -23 -99 -65 -133 -93 l-61 -50 -31 29 c-51 47
-108 88 -172 123 -33 19 -62 35 -64 37 -2 1 -5 45 -6 97 -2 82 -6 103 -33 159
-36 78 -93 136 -170 174 -48 24 -70 28 -137 28 -44 0 -91 -2 -104 -5 -24 -5
-25 -2 -26 45 -4 144 -77 260 -203 322 -49 24 -69 28 -147 28 -49 0 -96 -3
-104 -5 -10 -4 -17 10 -26 46 -44 189 -243 312 -433 269z m615 -557 c57 -27
62 -53 61 -349 l0 -269 -62 -31 c-33 -17 -85 -49 -113 -70 l-53 -40 0 347 c0
387 1 390 69 418 39 15 56 14 98 -6z m2216 -15 c10 -10 23 -28 28 -40 9 -24
15 -690 6 -699 -3 -3 -20 7 -38 24 -17 16 -67 48 -110 71 l-79 42 0 273 c0
268 0 274 23 307 39 58 118 68 170 22z m-1741 -374 c30 -16 58 -70 58 -112 l0
-37 -65 3 c-35 2 -84 1 -108 -3 -60 -9 -65 -5 -61 42 10 98 95 150 176 107z
m1259 -3 c8 -4 23 -20 32 -36 27 -46 24 -132 -4 -114 -6 3 -55 6 -110 6 l-99
1 0 37 c0 49 36 102 80 116 31 10 56 8 101 -10z m-1126 -401 c89 -30 166 -77
241 -147 40 -38 76 -77 79 -86 11 -33 76 -72 118 -72 42 0 54 9 152 120 125
141 282 210 460 205 113 -4 186 -23 300 -79 145 -71 212 -153 256 -311 22 -82
29 -226 15 -330 -14 -104 -58 -243 -111 -350 -91 -184 -144 -246 -517 -598
-18 -18 -112 -107 -208 -198 -279 -266 -342 -324 -351 -324 -7 0 -100 86 -394
366 -49 48 -109 104 -131 125 -262 246 -375 361 -430 433 -183 244 -265 527
-231 801 15 120 62 223 136 297 55 54 195 125 301 152 93 23 241 22 315 -4z"/>
</g>
</svg>
